<svg version="1.0" xmlns="http://www.w3.org/2000/svg"
 width="1024.000000pt" height="1024.000000pt" viewBox="0 0 1024.000000 1024.000000"
 preserveAspectRatio="xMidYMid meet">

<g transform="translate(0.000000,1224.000000) scale(0.120000,-0.120000)"
fill="#000000" stroke="none">
<path d="M5484 8285 c-214 -46 -374 -214 -416 -435 -13 -71 -4 -200 20 -272
l19 -56 -206 -204 c-113 -112 -247 -243 -297 -291 l-91 -89 -44 22 c-221 113
-461 79 -630 -89 -107 -107 -159 -232 -159 -386 0 -153 51 -276 160 -385 166
-166 414 -207 626 -103 l55 27 228 -228 227 -227 -19 -57 c-12 -34 -22 -94
-25 -147 -8 -164 39 -285 153 -401 136 -138 317 -192 507 -153 176 36 332 172
394 344 73 200 23 419 -130 570 -110 110 -220 155 -376 155 -90 0 -155 -14
-234 -49 -27 -11 -50 -20 -52 -19 -1 2 -107 106 -234 232 l-231 229 16 46 c27
77 30 213 7 301 l-20 75 67 69 c65 69 302 301 456 448 l80 76 45 -23 c117 -60
290 -70 415 -25 l60 21 177 -181 c97 -100 215 -225 262 -279 l86 -98 -21 -84
c-89 -350 159 -678 513 -679 103 0 168 15 258 58 326 159 395 606 134 868
-109 109 -281 173 -429 159 -72 -7 -173 -36 -212 -61 -22 -14 -26 -10 -100 68
-43 45 -158 167 -256 270 l-178 187 15 28 c45 88 60 267 31 378 -73 279 -363
453 -651 390z"/>
<path d="M2052 6590 c-66 -16 -112 -80 -112 -158 0 -58 28 -106 80 -136 34
-20 52 -21 445 -24 l410 -3 239 -762 c435 -1385 643 -2042 659 -2077 23 -55
73 -117 117 -146 84 -56 21 -54 1788 -54 1787 0 1667 -4 1723 56 21 22 24 36
24 99 0 70 -2 76 -34 109 -20 21 -50 38 -77 45 -30 8 -517 11 -1633 11 l-1589
0 -26 30 c-21 26 -41 76 -82 213 -5 16 71 17 1493 17 1669 0 1570 -4 1720 70
97 48 213 155 255 235 46 88 550 1555 550 1601 0 77 -51 135 -130 150 -40 8
-110 -17 -141 -50 -14 -15 -104 -262 -262 -722 -132 -384 -251 -729 -265 -765
-29 -79 -76 -127 -159 -166 l-60 -28 -1555 -3 -1556 -2 -141 452 c-78 249
-223 714 -323 1033 -100 319 -198 632 -217 695 -42 138 -74 201 -121 236 -67
52 -90 54 -556 53 -237 -1 -446 -5 -464 -9z"/>
<path d="M4285 3066 c-193 -47 -325 -216 -325 -416 0 -204 128 -364 333 -416
209 -54 434 76 498 288 96 315 -190 621 -506 544z"/>
<path d="M6505 3067 c-157 -40 -271 -151 -311 -302 -20 -72 -17 -172 6 -247
91 -297 467 -393 694 -178 271 256 106 711 -267 735 -42 3 -93 -1 -122 -8z"/>
</g>
</svg>
